# xmcd
#
# Track frame offsets:
#	182
#	14215
#	29942
#	49347
#	65192
#	87317
#	108130
#	126395
#
# Disc length: 1924 seconds
#
# Revision: 1
# Processed by: cddbd v1.4PL0 Copyright (c) Steve Scherf et al.
# Submitted via: audiograbber 1.80.04
#
DISCID=7c078208
DTITLE=Brew City Sisters - At Home In A Honky Tonk
DYEAR=1900
DGENRE=Country
TTITLE0=Gotta Get Back
TTITLE1=At Home In A Honky Tonk
TTITLE2=The Greatest Gift
TTITLE3=Roll On By
TTITLE4=Mom And Dad
TTITLE5=The Last Time
TTITLE6=The Whole World's Goin' To Hell( But We're Goin' To Nashville)
TTITLE7=hung out to dry
EXTD=
EXTT0=
EXTT1=
EXTT2=
EXTT3=
EXTT4=
EXTT5=
EXTT6=
EXTT7=
PLAYORDER=
